<?xml version="1.0" encoding="UTF-8"?>
<svg version="1.1" xmlns="http://www.w3.org/2000/svg" width="100" height="100">
<path d="M0 0 C33 0 66 0 100 0 C100 33 100 66 100 100 C67 100 34 100 0 100 C0 67 0 34 0 0 Z " fill="#9076F8" transform="translate(0,0)"/>
<path d="M0 0 C0.35095944 3.77281397 0.24849965 5.59175057 -1.75 8.875 C-4 11 -4 11 -8 11 C-7.7834375 12.68416016 -7.7834375 12.68416016 -7.5625 14.40234375 C-4.91461529 35.46549058 -4.91461529 35.46549058 -7.8125 39.5625 C-10 41 -10 41 -13 41 C-13 41.66 -13 42.32 -13 43 C-13.66 43 -14.32 43 -15 43 C-14.566875 44.051875 -14.566875 44.051875 -14.125 45.125 C-14 48 -14 48 -15.26953125 49.66796875 C-16.80013459 51.17706479 -18.35721507 52.61434662 -20 54 C-23.93673644 52.68775452 -26.22719294 51.08089673 -29 48 C-28.505 47.01 -28.505 47.01 -28 46 C-26.02 47.65 -24.04 49.3 -22 51 C-20.00136244 50.42055068 -20.00136244 50.42055068 -18 49 C-16.70768358 45.95800528 -16.70768358 45.95800528 -16 43 C-20.455 43.495 -20.455 43.495 -25 44 C-25 43.01 -25 42.02 -25 41 C-23.2675 41.1546875 -23.2675 41.1546875 -21.5 41.3125 C-17.11793624 41.28902466 -14.11000685 40.09115699 -10.5 37.64453125 C-8.61675147 35.57982388 -8.5 34.45007564 -8.5 31.6875 C-8.665 30.470625 -8.83 29.25375 -9 28 C-10.5778125 28.495 -10.5778125 28.495 -12.1875 29 C-15.38873357 29.83966782 -17.7411008 30.19750904 -21 30 C-21 29.34 -21 28.68 -21 28 C-19.68 28.33 -18.36 28.66 -17 29 C-17.495 24.545 -17.495 24.545 -18 20 C-17.01 19.67 -16.02 19.34 -15 19 C-15 18.34 -15 17.68 -15 17 C-15.66 16.67 -16.32 16.34 -17 16 C-14.69 16.33 -12.38 16.66 -10 17 C-10 14.69 -10 12.38 -10 10 C-10.53882812 10.16242187 -11.07765625 10.32484375 -11.6328125 10.4921875 C-18.11624258 11.88302234 -25.56135024 11.43081106 -32 10 C-32 12.31 -32 14.62 -32 17 C-30.7625 16.7525 -29.525 16.505 -28.25 16.25 C-25.04619609 15.85734908 -24.29969285 15.81726046 -21.4375 17.5625 C-20 20 -20 20 -20.25 23.25 C-20.4975 24.1575 -20.745 25.065 -21 26 C-21.33 26 -21.66 26 -22 26 C-22.33 24.35 -22.66 22.7 -23 21 C-23.99 20.67 -24.98 20.34 -26 20 C-26 21.32 -26 22.64 -26 24 C-26.66 24 -27.32 24 -28 24 C-28 23.01 -28 22.02 -28 21 C-28.99 21 -29.98 21 -31 21 C-30.34 22.98 -29.68 24.96 -29 27 C-27.35 27.33 -25.7 27.66 -24 28 C-24 28.33 -24 28.66 -24 29 C-26.8125 29.3125 -26.8125 29.3125 -30 29 C-31.6875 26.6875 -31.6875 26.6875 -33 24 C-34.58245275 22.24850835 -34.58245275 22.24850835 -36 21 C-36 22.65 -36 24.3 -36 26 C-37.32 26.33 -38.64 26.66 -40 27 C-40 28.32 -40 29.64 -40 31 C-39.4225 31.04125 -38.845 31.0825 -38.25 31.125 C-34.86902037 32.43982541 -33.87218481 34.98034708 -32 38 C-30.37648891 39.79394446 -30.37648891 39.79394446 -29 41 C-30.051875 40.896875 -31.10375 40.79375 -32.1875 40.6875 C-36.9702494 41.07952864 -37.86210317 42.53179824 -41 46 C-43.8125 47.3125 -43.8125 47.3125 -46 48 C-46 49.32 -46 50.64 -46 52 C-45.01 52 -44.02 52 -43 52 C-43.53109375 52.556875 -44.0621875 53.11375 -44.609375 53.6875 C-45.31578125 54.450625 -46.0221875 55.21375 -46.75 56 C-47.44609375 56.7425 -48.1421875 57.485 -48.859375 58.25 C-53.88796332 64.71008426 -55.70061203 70.96292273 -56.75 79 C-56.93755859 80.30517578 -56.93755859 80.30517578 -57.12890625 81.63671875 C-57.43167185 83.75607792 -57.71761438 85.87782926 -58 88 C-63.61 88 -69.22 88 -75 88 C-75 60.61 -75 33.22 -75 5 C-73 6 -73 6 -72 8 C-70.35636866 8.72159424 -68.68949614 9.39351421 -67 10 C-67.33 9.67 -67.66 9.34 -68 9 C-68.33 8.34 -68.66 7.68 -69 7 C-66.69 7 -64.38 7 -62 7 C-61.67 7.99 -61.34 8.98 -61 10 C-60.34 10.33 -59.68 10.66 -59 11 C-59.66 9.68 -60.32 8.36 -61 7 C-58 5 -58 5 -54 5 C-53.34 6.32 -52.68 7.64 -52 9 C-52.66 9.66 -53.32 10.32 -54 11 C-53.01 12.98 -52.02 14.96 -51 17 C-51.99 17.66 -52.98 18.32 -54 19 C-53.67 19.99 -53.34 20.98 -53 22 C-50.98491642 22.73323796 -50.98491642 22.73323796 -49 23 C-48.34 22.01 -47.68 21.02 -47 20 C-45.68 20 -44.36 20 -43 20 C-43.02320312 19.25234375 -43.04640625 18.5046875 -43.0703125 17.734375 C-43.09738281 16.25710937 -43.09738281 16.25710937 -43.125 14.75 C-43.14820312 13.77546875 -43.17140625 12.8009375 -43.1953125 11.796875 C-42.99421321 8.91713317 -42.59613973 7.38104013 -41 5 C-38.66616367 3.47586199 -36.48588473 2.21940179 -34 1 C-33.2575 0.63519531 -32.515 0.27039063 -31.75 -0.10546875 C-21.94679888 -4.69243954 -9.49379965 -6.23878262 0 0 Z M-57 21 C-56.67 21.99 -56.34 22.98 -56 24 C-55.34 23.67 -54.68 23.34 -54 23 C-54.33 22.34 -54.66 21.68 -55 21 C-55.66 21 -56.32 21 -57 21 Z " fill="#7373F0" transform="translate(75,12)"/>
<path d="M0 0 C0.83789062 0.14308594 1.67578125 0.28617188 2.5390625 0.43359375 C6.53725441 1.08792538 10.33551757 1.10998035 14.375 1.0625 C15.47908203 1.05573242 15.47908203 1.05573242 16.60546875 1.04882812 C18.40368158 1.03715142 20.20185197 1.01922011 22 1 C22 3.31 22 5.62 22 8 C20.35 8 18.7 8 17 8 C17 8.66 17 9.32 17 10 C16.34 10.66 15.68 11.32 15 12 C14.75787127 13.98128508 14.75787127 13.98128508 14.875 16.125 C14.91625 17.40375 14.9575 18.6825 15 20 C13.68 19.67 12.36 19.34 11 19 C11 19.66 11 20.32 11 21 C11.85464844 20.77183594 12.70929687 20.54367188 13.58984375 20.30859375 C14.69457031 20.02113281 15.79929688 19.73367187 16.9375 19.4375 C18.03964844 19.14746094 19.14179687 18.85742188 20.27734375 18.55859375 C21.17582031 18.37425781 22.07429688 18.18992187 23 18 C24 19 24 19 24.375 22.8125 C24.33811513 26.24894039 24.24137994 26.74521007 21.75 29.375 C20.38875 30.179375 20.38875 30.179375 19 31 C18.401875 31.4125 17.80375 31.825 17.1875 32.25 C13.77955812 33.41843722 10.58866602 33.1196222 7 33 C7 33.33 7 33.66 7 34 C9.97 34 12.94 34 16 34 C16.25 36.25 16.25 36.25 16 39 C14 41.3125 14 41.3125 12 43 C9.0280615 41.87548273 6.66559313 40.77706209 4 39 C5.98 40.65 7.96 42.3 10 44 C12.86095641 42.7175023 15.11365918 41.54656011 17 39 C17.25069913 36.37429296 17.25069913 36.37429296 17 34 C18.9375 34.75 18.9375 34.75 21 36 C21.33333333 37.33333333 21.66666667 38.66666667 22 40 C22.5775 40.268125 23.155 40.53625 23.75 40.8125 C27.85305269 42.97800003 30.16388103 46.72090151 31.7265625 50.98046875 C33.86687289 60.0049118 33.55167626 70.03352517 34 79 C14.2 79 -5.6 79 -26 79 C-24.07930949 60.75344014 -23.26989009 54.91945148 -12 43 C-13.485 43.495 -13.485 43.495 -15 44 C-15.125 41.625 -15.125 41.625 -15 39 C-13 37 -13 37 -11.1875 36.6875 C-8.70426302 36.1056998 -8.70426302 36.1056998 -6.625 33.4375 C-4 31 -4 31 -0.6875 30.6875 C0.199375 30.790625 1.08625 30.89375 2 31 C1.195625 30.236875 0.39125 29.47375 -0.4375 28.6875 C-3 26 -3 26 -4 23 C-5.65 22.67 -7.3 22.34 -9 22 C-8.67 20.35 -8.34 18.7 -8 17 C-7.01 16.67 -6.02 16.34 -5 16 C-4.26676204 13.98491642 -4.26676204 13.98491642 -4 12 C-1 13 -1 13 0.6875 16.0625 C1.120625 17.031875 1.55375 18.00125 2 19 C0.768606 16.53721199 0.92840804 14.7204945 1 12 C1.99 12 2.98 12 4 12 C4 12.99 4 13.98 4 15 C4.66 15 5.32 15 6 15 C6 13.68 6 12.36 6 11 C7.9375 11.375 7.9375 11.375 10 12 C10.495 12.99 10.495 12.99 11 14 C11 13.01 11 12.02 11 11 C10.01 10.34 9.02 9.68 8 9 C8 8.34 8 7.68 8 7 C7.2575 7.350625 6.515 7.70125 5.75 8.0625 C2.8677274 9.04509293 1.78823655 9.0326802 -1 8 C-1.04241723 5.66705225 -1.04092937 3.33297433 -1 1 C-0.67 0.67 -0.34 0.34 0 0 Z " fill="#F6F6F6" transform="translate(43,21)"/>
<path d="M0 0 C33 0 66 0 100 0 C100 2.97 100 5.94 100 9 C99.01 8.67 98.02 8.34 97 8 C96.67 8.66 96.34 9.32 96 10 C94.68 9.67 93.36 9.34 92 9 C92 9.66 92 10.32 92 11 C91.443125 11.268125 90.88625 11.53625 90.3125 11.8125 C86.72399349 13.65524658 83.35510946 15.76326036 80 18 C77.3125 18.125 77.3125 18.125 75 18 C74 16 74 16 74 12 C65.19996977 8.06186492 55.80856542 8.36060088 46.66796875 10.96875 C42.86632608 12.438199 40.16235506 14.44320229 37 17 C36.01 17.33 35.02 17.66 34 18 C32.9551242 22.62730711 32.48243721 27.28853878 32 32 C30.68 32 29.36 32 28 32 C27.34 33.32 26.68 34.64 26 36 C24.35 35.67 22.7 35.34 21 35 C20.375 33.25 20.375 33.25 20 31 C20.5259375 30.0409375 20.5259375 30.0409375 21.0625 29.0625 C22.31351705 26.92195681 22.31351705 26.92195681 21.125 24.25 C20.75375 23.5075 20.3825 22.765 20 22 C20.66 21.34 21.32 20.68 22 20 C21.67 19.01 21.34 18.02 21 17 C19.35 17.66 17.7 18.32 16 19 C16 20.32 16 21.64 16 23 C15.4225 22.690625 14.845 22.38125 14.25 22.0625 C12.15705816 21.07416636 10.25464725 20.4831387 8 20 C8 20.99 8 21.98 8 23 C3.25 21.125 3.25 21.125 1 20 C-1.11081869 13.66754392 0 6.6749948 0 0 Z M18 33 C18.66 33 19.32 33 20 33 C20.33 33.99 20.66 34.98 21 36 C20.01 35.67 19.02 35.34 18 35 C18 34.34 18 33.68 18 33 Z " fill="#9377FB" transform="translate(0,0)"/>
<path d="M0 0 C0.35095944 3.77281397 0.24849965 5.59175057 -1.75 8.875 C-4 11 -4 11 -8 11 C-7.855625 12.12277344 -7.71125 13.24554687 -7.5625 14.40234375 C-4.91461529 35.46549058 -4.91461529 35.46549058 -7.8125 39.5625 C-10 41 -10 41 -13 41 C-13 41.66 -13 42.32 -13 43 C-13.66 43 -14.32 43 -15 43 C-14.566875 44.051875 -14.566875 44.051875 -14.125 45.125 C-14 48 -14 48 -15.26953125 49.66796875 C-16.80013459 51.17706479 -18.35721507 52.61434662 -20 54 C-23.93673644 52.68775452 -26.22719294 51.08089673 -29 48 C-28.67 47.34 -28.34 46.68 -28 46 C-26.02 47.65 -24.04 49.3 -22 51 C-20.00136244 50.42055068 -20.00136244 50.42055068 -18 49 C-16.70768358 45.95800528 -16.70768358 45.95800528 -16 43 C-20.455 43.495 -20.455 43.495 -25 44 C-25 43.01 -25 42.02 -25 41 C-23.2675 41.1546875 -23.2675 41.1546875 -21.5 41.3125 C-17.11793624 41.28902466 -14.11000685 40.09115699 -10.5 37.64453125 C-8.61675147 35.57982388 -8.5 34.45007564 -8.5 31.6875 C-8.7475 29.8621875 -8.7475 29.8621875 -9 28 C-10.051875 28.33 -11.10375 28.66 -12.1875 29 C-15.38873357 29.83966782 -17.7411008 30.19750904 -21 30 C-21 29.34 -21 28.68 -21 28 C-19.68 28.33 -18.36 28.66 -17 29 C-17.33 26.03 -17.66 23.06 -18 20 C-17.01 19.67 -16.02 19.34 -15 19 C-15 18.34 -15 17.68 -15 17 C-15.66 16.67 -16.32 16.34 -17 16 C-14.69 16.33 -12.38 16.66 -10 17 C-10 14.69 -10 12.38 -10 10 C-10.53882813 10.16242187 -11.07765625 10.32484375 -11.6328125 10.4921875 C-18.11624258 11.88302234 -25.56135024 11.43081106 -32 10 C-32 12.31 -32 14.62 -32 17 C-30.7625 16.7525 -29.525 16.505 -28.25 16.25 C-25.04619609 15.85734908 -24.29969285 15.81726046 -21.4375 17.5625 C-20 20 -20 20 -20.25 23.25 C-20.4975 24.1575 -20.745 25.065 -21 26 C-21.33 26 -21.66 26 -22 26 C-22.495 23.525 -22.495 23.525 -23 21 C-23.99 20.67 -24.98 20.34 -26 20 C-26 21.32 -26 22.64 -26 24 C-26.66 24 -27.32 24 -28 24 C-28 23.01 -28 22.02 -28 21 C-28.99 21 -29.98 21 -31 21 C-30.34 22.98 -29.68 24.96 -29 27 C-27.35 27.33 -25.7 27.66 -24 28 C-24 28.33 -24 28.66 -24 29 C-26.8125 29.3125 -26.8125 29.3125 -30 29 C-31.6875 26.6875 -31.6875 26.6875 -33 24 C-34.58245275 22.24850835 -34.58245275 22.24850835 -36 21 C-36 22.65 -36 24.3 -36 26 C-37.32 26.33 -38.64 26.66 -40 27 C-40 28.32 -40 29.64 -40 31 C-38.68 31.33 -37.36 31.66 -36 32 C-36 32.66 -36 33.32 -36 34 C-38.375 33.6875 -38.375 33.6875 -41 33 C-43.4294516 29.3558226 -43.16179575 27.28758728 -43 23 C-43.66 23 -44.32 23 -45 23 C-45.66 23.66 -46.32 24.32 -47 25 C-47.33 24.01 -47.66 23.02 -48 22 C-47.67 21.34 -47.34 20.68 -47 20 C-45.68 20 -44.36 20 -43 20 C-43.02320313 19.25234375 -43.04640625 18.5046875 -43.0703125 17.734375 C-43.08835937 16.74953125 -43.10640625 15.7646875 -43.125 14.75 C-43.14820313 13.77546875 -43.17140625 12.8009375 -43.1953125 11.796875 C-42.99421321 8.91713317 -42.59613973 7.38104013 -41 5 C-38.66616367 3.47586199 -36.48588473 2.21940179 -34 1 C-33.2575 0.63519531 -32.515 0.27039063 -31.75 -0.10546875 C-21.94679888 -4.69243954 -9.49379965 -6.23878262 0 0 Z " fill="#1C1B1D" transform="translate(75,12)"/>
<path d="M0 0 C2 1 2 1 3 3 C4.64363134 3.72159424 6.31050386 4.39351421 8 5 C7.67 4.67 7.34 4.34 7 4 C6.67 3.34 6.34 2.68 6 2 C8.31 2 10.62 2 13 2 C13.33 2.99 13.66 3.98 14 5 C14.66 5.33 15.32 5.66 16 6 C15.34 4.68 14.68 3.36 14 2 C17 0 17 0 21 0 C21.66 1.32 22.32 2.64 23 4 C22.34 4.66 21.68 5.32 21 6 C21.99 7.98 22.98 9.96 24 12 C23.01 12.66 22.02 13.32 21 14 C21.33 14.99 21.66 15.98 22 17 C25.73486879 17.5745952 29.21293268 18 33 18 C32.95875 19.093125 32.9175 20.18625 32.875 21.3125 C32.67925334 25.08892229 32.67925334 25.08892229 35 28 C35.99 28.66 36.98 29.32 38 30 C33.16492386 32.2315736 30.41772687 33 25 33 C25 33.66 25 34.32 25 35 C24.38125 35.12375 23.7625 35.2475 23.125 35.375 C20.80879168 35.87197356 20.80879168 35.87197356 19 38 C18.67 37.01 18.34 36.02 18 35 C16.68 35 15.36 35 14 35 C14 34.34 14 33.68 14 33 C13.34 33 12.68 33 12 33 C12 32.34 12 31.68 12 31 C11.01 30.34 10.02 29.68 9 29 C8.67 28.01 8.34 27.02 8 26 C6.651426 24.78542807 5.29634536 23.57806944 3.9375 22.375 C-0.38400219 17.74536932 -0.65501056 13.99358066 -0.5 7.9375 C-0.3941859 5.28026754 -0.21918703 2.65155426 0 0 Z M18 16 C18.33 16.99 18.66 17.98 19 19 C19.66 18.67 20.32 18.34 21 18 C20.67 17.34 20.34 16.68 20 16 C19.34 16 18.68 16 18 16 Z " fill="#7C74F2" transform="translate(0,17)"/>
<path d="M0 0 C4.95 0 9.9 0 15 0 C15.33 1.65 15.66 3.3 16 5 C15.34 5 14.68 5 14 5 C13.67 4.34 13.34 3.68 13 3 C12.67 3.66 12.34 4.32 12 5 C11.34 5 10.68 5 10 5 C10.04125 6.27875 10.0825 7.5575 10.125 8.875 C10.1953125 11.0546875 10.1953125 11.0546875 10 13 C9.34 13.66 8.68 14.32 8 15 C8.99 15.33 9.98 15.66 11 16 C10.67 16.99 10.34 17.98 10 19 C9.01 19.33 8.02 19.66 7 20 C7.66 20.33 8.32 20.66 9 21 C8.67 21.66 8.34 22.32 8 23 C3.25 21.125 3.25 21.125 1 20 C0.09761253 17.29283758 -0.11851302 15.76223232 -0.09765625 12.98828125 C-0.09443359 12.23095703 -0.09121094 11.47363281 -0.08789062 10.69335938 C-0.07951172 9.90767578 -0.07113281 9.12199219 -0.0625 8.3125 C-0.05798828 7.51521484 -0.05347656 6.71792969 -0.04882812 5.89648438 C-0.0370585 3.93095743 -0.01912348 1.96546915 0 0 Z " fill="#8F8AFC" transform="translate(0,0)"/>
<path d="M0 0 C1.24910156 -0.00515625 2.49820313 -0.0103125 3.78515625 -0.015625 C6.9375 0.25 6.9375 0.25 8.9375 2.25 C9.9275 2.25 10.9175 2.25 11.9375 2.25 C13.2575 2.25 14.5775 2.25 15.9375 2.25 C15.9375 2.91 15.9375 3.57 15.9375 4.25 C10.46130952 9.25 10.46130952 9.25 7.9375 9.25 C7.9375 9.91 7.9375 10.57 7.9375 11.25 C5.9575 11.91 3.9775 12.57 1.9375 13.25 C1.6075 12.26 1.2775 11.27 0.9375 10.25 C-0.0525 9.92 -1.0425 9.59 -2.0625 9.25 C-1.0725 8.92 -0.0825 8.59 0.9375 8.25 C0.9375 7.59 0.9375 6.93 0.9375 6.25 C-0.7125 6.91 -2.3625 7.57 -4.0625 8.25 C-6.0625 6.25 -8.0625 4.25 -10.0625 2.25 C-6.37155532 -0.21062979 -4.39205805 -0.01816777 0 0 Z " fill="#9E80FE" transform="translate(39.0625,-0.25)"/>
<path d="M0 0 C0.83789062 0.14308594 1.67578125 0.28617188 2.5390625 0.43359375 C6.53725441 1.08792538 10.33551757 1.10998035 14.375 1.0625 C15.47908203 1.05573242 15.47908203 1.05573242 16.60546875 1.04882812 C18.40368158 1.03715142 20.20185197 1.01922011 22 1 C22 3.31 22 5.62 22 8 C20.35 8 18.7 8 17 8 C17 8.66 17 9.32 17 10 C14.1875 10.625 14.1875 10.625 11 11 C10.01 10.34 9.02 9.68 8 9 C8 8.34 8 7.68 8 7 C7.2575 7.350625 6.515 7.70125 5.75 8.0625 C2.8677274 9.04509293 1.78823655 9.0326802 -1 8 C-1.04241723 5.66705225 -1.04092937 3.33297433 -1 1 C-0.67 0.67 -0.34 0.34 0 0 Z " fill="#F2F2F2" transform="translate(43,21)"/>
<path d="M0 0 C1.94824219 0.74560547 1.94824219 0.74560547 4 2 C4.63769531 3.84423828 4.63769531 3.84423828 4.828125 6.0703125 C4.90546875 6.885 4.9828125 7.6996875 5.0625 8.5390625 C5.124375 9.39242187 5.18625 10.24578125 5.25 11.125 C5.36601563 12.37023437 5.36601563 12.37023437 5.484375 13.640625 C5.93507351 18.77536871 6.07140135 23.84720243 6 29 C4.35 29 2.7 29 1 29 C-0.01085428 25.65613602 -0.11543463 22.6251882 -0.09765625 19.140625 C-0.09443359 18.02558594 -0.09121094 16.91054687 -0.08789062 15.76171875 C-0.07951172 14.60285156 -0.07113281 13.44398437 -0.0625 12.25 C-0.05798828 11.07566406 -0.05347656 9.90132812 -0.04882812 8.69140625 C-0.03705094 5.79421928 -0.02060326 2.89713546 0 0 Z " fill="#F0F0F0" transform="translate(71,71)"/>
<path d="M0 0 C2.31 1.98 4.62 3.96 7 6 C4 7 4 7 1 7.3125 C-2.61541427 8.14103244 -2.95400335 9.0644396 -5 12 C-7.6875 13.25 -7.6875 13.25 -10 14 C-10 15.32 -10 16.64 -10 18 C-9.01 18 -8.02 18 -7 18 C-7.53109375 18.556875 -8.0621875 19.11375 -8.609375 19.6875 C-9.31578125 20.450625 -10.0221875 21.21375 -10.75 22 C-11.44609375 22.7425 -12.1421875 23.485 -12.859375 24.25 C-17.88796332 30.71008426 -19.70061203 36.96292273 -20.75 45 C-20.87503906 45.87011719 -21.00007813 46.74023438 -21.12890625 47.63671875 C-21.43167185 49.75607792 -21.71761438 51.87782926 -22 54 C-22.66 54 -23.32 54 -24 54 C-23.11968084 41.93831362 -21.84828511 32.8138061 -14.6875 22.75 C-12.72759572 20.09382814 -12.72759572 20.09382814 -13 16.875 C-13 14 -13 14 -11.25 11.625 C-9 10 -9 10 -5 10 C-4.7525 9.38125 -4.505 8.7625 -4.25 8.125 C-2.79371361 5.64931313 -1.62187494 5.04874998 1 4 C0.67 2.68 0.34 1.36 0 0 Z " fill="#282833" transform="translate(39,46)"/>
<path d="M0 0 C4.95 0 9.9 0 15 0 C15.33 1.65 15.66 3.3 16 5 C15.34 5 14.68 5 14 5 C13.67 4.34 13.34 3.68 13 3 C12.67 3.66 12.34 4.32 12 5 C11.34 5 10.68 5 10 5 C9.67 5.99 9.34 6.98 9 8 C7.68 8 6.36 8 5 8 C1.9254644 8.7763932 1.9254644 8.7763932 0 11 C0 7.37 0 3.74 0 0 Z " fill="#8B87FF" transform="translate(0,0)"/>
<path d="M0 0 C6.47680535 2.59662356 11.27080493 9.40260704 14.21484375 15.52734375 C17.28440594 24.94983066 17.19540195 35.18648006 17 45 C16.34 45 15.68 45 15 45 C14.93006836 44.22398438 14.86013672 43.44796875 14.78808594 42.6484375 C14.45860066 39.09720068 14.1045167 35.5488218 13.75 32 C13.64042969 30.77925781 13.53085938 29.55851562 13.41796875 28.30078125 C12.24247021 16.81823504 12.24247021 16.81823504 5.4375 7.875 C4.633125 7.25625 3.82875 6.6375 3 6 C1.1875 2.75 1.1875 2.75 0 0 Z " fill="#2C2A37" transform="translate(62,55)"/>
<path d="M0 0 C-0.33 0.66 -0.66 1.32 -1 2 C-1.66 2 -2.32 2 -3 2 C-3 3.65 -3 5.3 -3 7 C-4.32 7.33 -5.64 7.66 -7 8 C-7 9.32 -7 10.64 -7 12 C-5.68 12.33 -4.36 12.66 -3 13 C-3 13.66 -3 14.32 -3 15 C-5.375 14.6875 -5.375 14.6875 -8 14 C-10.4294516 10.3558226 -10.16179575 8.28758728 -10 4 C-10.66 4 -11.32 4 -12 4 C-12.66 4.66 -13.32 5.32 -14 6 C-14.33 5.01 -14.66 4.02 -15 3 C-14.67 2.34 -14.34 1.68 -14 1 C-9.45906828 -0.41904116 -4.7056901 -0.09226843 0 0 Z " fill="#17171D" transform="translate(42,31)"/>
<path d="M0 0 C0.66 0.33 1.32 0.66 2 1 C3.54023996 1.06950541 5.08334988 1.08452357 6.625 1.0625 C7.44226562 1.05347656 8.25953125 1.04445312 9.1015625 1.03515625 C9.72804688 1.02355469 10.35453125 1.01195312 11 1 C11.25 3.25 11.25 3.25 11 6 C9 8.3125 9 8.3125 7 10 C3.06326356 8.68775452 0.77280706 7.08089673 -2 4 C-1.34 2.68 -0.68 1.36 0 0 Z " fill="#FAFAFA" transform="translate(48,54)"/>
<path d="M0 0 C4 0 4 0 6.3125 1.625 C8 4 8 4 7.75 7.25 C7.5025 8.1575 7.255 9.065 7 10 C6.67 10 6.34 10 6 10 C5.67 8.35 5.34 6.7 5 5 C4.01 4.67 3.02 4.34 2 4 C2 5.32 2 6.64 2 8 C1.34 8 0.68 8 0 8 C0 7.01 0 6.02 0 5 C-0.99 5 -1.98 5 -3 5 C-2.34 6.98 -1.68 8.96 -1 11 C0.65 11.33 2.3 11.66 4 12 C4 12.33 4 12.66 4 13 C1.1875 13.3125 1.1875 13.3125 -2 13 C-3.75 10.75 -3.75 10.75 -5 8 C-5.556875 6.9171875 -5.556875 6.9171875 -6.125 5.8125 C-6.41375 5.214375 -6.7025 4.61625 -7 4 C-7.33 3.34 -7.66 2.68 -8 2 C-6.865625 1.855625 -5.73125 1.71125 -4.5625 1.5625 C-1.19222799 1.38828522 -1.19222799 1.38828522 0 0 Z " fill="#333333" transform="translate(47,28)"/>
<path d="M0 0 C0.33 0 0.66 0 1 0 C1 8.91 1 17.82 1 27 C3.31 27 5.62 27 8 27 C8 27.33 8 27.66 8 28 C5.69 28 3.38 28 1 28 C1 29.32 1 30.64 1 32 C0.34 32 -0.32 32 -1 32 C-1 30.68 -1 29.36 -1 28 C-2.65 28 -4.3 28 -6 28 C-6 27.67 -6 27.34 -6 27 C-4.35 27 -2.7 27 -1 27 C-1.00523682 26.25314941 -1.01047363 25.50629883 -1.01586914 24.73681641 C-1.03660401 21.36621943 -1.04964899 17.99563586 -1.0625 14.625 C-1.07087891 13.449375 -1.07925781 12.27375 -1.08789062 11.0625 C-1.09111328 9.94101563 -1.09433594 8.81953125 -1.09765625 7.6640625 C-1.10289307 6.62717285 -1.10812988 5.5902832 -1.11352539 4.52197266 C-1 2 -1 2 0 0 Z " fill="#393939" transform="translate(54,68)"/>
<path d="M0 0 C2 1 2 1 3 3 C4.64363134 3.72159424 6.31050386 4.39351421 8 5 C7.67 4.67 7.34 4.34 7 4 C6.67 3.34 6.34 2.68 6 2 C8.31 2 10.62 2 13 2 C12.875 4.3125 12.875 4.3125 12 7 C8.9375 8.8125 8.9375 8.8125 6 10 C6 10.66 6 11.32 6 12 C3.13275314 11.42655063 2.1385485 11.1385485 0 9 C-0.1953125 6.8359375 -0.1953125 6.8359375 -0.125 4.375 C-0.10695312 3.55773437 -0.08890625 2.74046875 -0.0703125 1.8984375 C-0.04710937 1.27195312 -0.02390625 0.64546875 0 0 Z " fill="#786DE6" transform="translate(0,17)"/>
<path d="M0 0 C0 0.99 0 1.98 0 3 C-0.66 3 -1.32 3 -2 3 C-1.71125 3.70125 -1.4225 4.4025 -1.125 5.125 C-1 8 -1 8 -2.26953125 9.66796875 C-3.80013459 11.17706479 -5.35721507 12.61434662 -7 14 C-10.93673644 12.68775452 -13.22719294 11.08089673 -16 8 C-15.67 7.34 -15.34 6.68 -15 6 C-13.02 7.65 -11.04 9.3 -9 11 C-7.00136244 10.42055068 -7.00136244 10.42055068 -5 9 C-3.70768358 5.95800528 -3.70768358 5.95800528 -3 3 C-7.455 3.495 -7.455 3.495 -12 4 C-12 3.01 -12 2.02 -12 1 C-9.98177083 1.03255208 -7.96354167 1.06510417 -5.9453125 1.09765625 C-3.67210333 0.98353932 -2.2885712 0 0 0 Z " fill="#363636" transform="translate(62,52)"/>
<path d="M0 0 C1.32 0.33 2.64 0.66 4 1 C4.125 3.375 4.125 3.375 4 6 C2 8 2 8 -0.5 8.25 C-3 8 -3 8 -5 6 C-5.125 3.375 -5.125 3.375 -5 1 C-4.01 1 -3.02 1 -2 1 C-2 1.99 -2 2.98 -2 4 C-1.34 4 -0.68 4 0 4 C0 2.68 0 1.36 0 0 Z " fill="#F3F3F3" transform="translate(49,32)"/>
<path d="M0 0 C0.33 0.99 0.66 1.98 1 3 C2.32 2.67 3.64 2.34 5 2 C4.01 2.99 3.02 3.98 2 5 C2.33 5.804375 2.66 6.60875 3 7.4375 C4 10 4 10 4 11 C3.67 11.66 3.34 12.32 3 13 C2.01 12.67 1.02 12.34 0 12 C0 11.34 0 10.68 0 10 C-0.99 9.67 -1.98 9.34 -3 9 C-3.36923077 3.46153846 -3.36923077 3.46153846 -1.5 1.125 C-1.005 0.75375 -0.51 0.3825 0 0 Z " fill="#A171FF" transform="translate(13,2)"/>
<path d="M0 0 C4.29 0 8.58 0 13 0 C12.01 1.485 12.01 1.485 11 3 C10.67 2.67 10.34 2.34 10 2 C9.01 2.495 9.01 2.495 8 3 C7.67 3.99 7.34 4.98 7 6 C4.69 5.34 2.38 4.68 0 4 C0 2.68 0 1.36 0 0 Z " fill="#8A82FF" transform="translate(15,0)"/>
<path d="M0 0 C0.66 1.65 1.32 3.3 2 5 C-1.63 5 -5.26 5 -9 5 C-9 3.68 -9 2.36 -9 1 C-5.70950422 -1.07179364 -3.663785 -1.44623092 0 0 Z " fill="#DFDFDF" transform="translate(64,95)"/>
<path d="M0 0 C0.33 0.66 0.66 1.32 1 2 C1.99 1.67 2.98 1.34 4 1 C3.67 1.99 3.34 2.98 3 4 C1.68 4 0.36 4 -1 4 C-1.66 6.64 -2.32 9.28 -3 12 C-3.99 11.67 -4.98 11.34 -6 11 C-6.31263383 4.12205567 -6.31263383 4.12205567 -4 1 C-1.875 0.25 -1.875 0.25 0 0 Z " fill="#9276FC" transform="translate(6,6)"/>
<path d="M0 0 C0 1 0 2 0 3 C0.33 3 0.66 3 1 3 C1.25 5.3125 1.25 5.3125 1 8 C-1 9.8125 -1 9.8125 -3 11 C-5 10 -5 10 -6 9 C-6 8.34 -6 7.68 -6 7 C-5.34 7 -4.68 7 -4 7 C-4.66 5.02 -5.32 3.04 -6 1 C-3.92446352 0.4465236 -2.15634036 0 0 0 Z " fill="#8C71FD" transform="translate(40,6)"/>
<path d="M0 0 C1.65 0.33 3.3 0.66 5 1 C5.125 3.375 5.125 3.375 5 6 C4.34 6.66 3.68 7.32 3 8 C0.375 7.625 0.375 7.625 -2 7 C-2 5.35 -2 3.7 -2 2 C-1.67 2.99 -1.34 3.98 -1 5 C-0.34 5 0.32 5 1 5 C0.67 3.35 0.34 1.7 0 0 Z " fill="#E6E6E6" transform="translate(61,31)"/>
<path d="M0 0 C0.99 0.33 1.98 0.66 3 1 C3 3.64 3 6.28 3 9 C0.69 8.67 -1.62 8.34 -4 8 C-3.67 7.34 -3.34 6.68 -3 6 C-2.34 6 -1.68 6 -1 6 C-0.67 4.02 -0.34 2.04 0 0 Z " fill="#D7D7D7" transform="translate(55,32)"/>
<path d="M0 0 C0.33 0 0.66 0 1 0 C1.33719047 2.56204544 1.66987153 5.12454318 2 7.6875 C2.09539062 8.40873047 2.19078125 9.12996094 2.2890625 9.87304688 C2.76683735 13.60992871 3.11919794 17.22291531 3 21 C2.34 21 1.68 21 1 21 C0.21311555 18.22276075 -0.11949924 15.77389923 -0.09765625 12.890625 C-0.09443359 12.13652344 -0.09121094 11.38242188 -0.08789062 10.60546875 C-0.07951172 9.82816406 -0.07113281 9.05085938 -0.0625 8.25 C-0.05798828 7.45722656 -0.05347656 6.66445312 -0.04882812 5.84765625 C-0.03708565 3.89840492 -0.01915146 1.94919262 0 0 Z " fill="#2D2D2D" transform="translate(71,79)"/>
<path d="M0 0 C2.82537064 1.19534912 4.67075074 2.56124041 7.0625 4.5625 C9.80205688 7.13537799 9.80205688 7.13537799 13 8 C13 8.66 13 9.32 13 10 C9.18684105 9.02454073 7.22587001 8.23137904 4.4375 5.375 C2.22593852 2.73350029 2.22593852 2.73350029 -0.8125 2.6875 C-1.8953125 2.8421875 -1.8953125 2.8421875 -3 3 C-2.01 2.01 -1.02 1.02 0 0 Z " fill="#4B4B4B" transform="translate(38,58)"/>
<path d="M0 0 C2.31 0 4.62 0 7 0 C6.01 0.495 6.01 0.495 5 1 C5.33 3.31 5.66 5.62 6 8 C7.98 8.66 9.96 9.32 12 10 C12 10.33 12 10.66 12 11 C9.1875 11.3125 9.1875 11.3125 6 11 C4.25 8.75 4.25 8.75 3 6 C2.443125 4.9171875 2.443125 4.9171875 1.875 3.8125 C1.58625 3.214375 1.2975 2.61625 1 2 C0.67 1.34 0.34 0.68 0 0 Z " fill="#535353" transform="translate(39,30)"/>
<path d="M0 0 C0.66 1.32 1.32 2.64 2 4 C4.31 4 6.62 4 9 4 C8 6 8 6 4.75 7.125 C1.62299365 7.85463482 -0.82622905 8.19234975 -4 8 C-4 7.34 -4 6.68 -4 6 C-2.68 6.33 -1.36 6.66 0 7 C-0.185625 6.401875 -0.37125 5.80375 -0.5625 5.1875 C-1 3 -1 3 0 0 Z " fill="#434343" transform="translate(58,34)"/>
<path d="M0 0 C1.258125 0.12375 2.51625 0.2475 3.8125 0.375 C4.87404297 0.47941406 4.87404297 0.47941406 5.95703125 0.5859375 C8 1 8 1 11 3 C10.01 3.66 9.02 4.32 8 5 C7.01 4.67 6.02 4.34 5 4 C4.34 4.66 3.68 5.32 3 6 C2.01 5.34 1.02 4.68 0 4 C0 2.68 0 1.36 0 0 Z " fill="#9B82FF" transform="translate(26,12)"/>
<path d="M0 0 C0 0.99 0 1.98 0 3 C-5.94 3.495 -5.94 3.495 -12 4 C-12 3.01 -12 2.02 -12 1 C-9.98177083 1.03255208 -7.96354167 1.06510417 -5.9453125 1.09765625 C-3.67210333 0.98353932 -2.2885712 0 0 0 Z " fill="#4E4D54" transform="translate(62,52)"/>
<path d="M0 0 C0.99 0.33 1.98 0.66 3 1 C2.67 1.99 2.34 2.98 2 4 C1.01 4.33 0.02 4.66 -1 5 C-0.34 5.33 0.32 5.66 1 6 C0.67 6.66 0.34 7.32 0 8 C-1.65 7.01 -3.3 6.02 -5 5 C-3.35 3.35 -1.7 1.7 0 0 Z " fill="#857DFF" transform="translate(8,15)"/>
<path d="M0 0 C0.33 0.99 0.66 1.98 1 3 C2.32 2.67 3.64 2.34 5 2 C4.67 2.66 4.34 3.32 4 4 C3.01 4 2.02 4 1 4 C1 5.32 1 6.64 1 8 C-1.51083114 6.74458443 -1.87125446 5.49936512 -3 3 C-2.01 2.01 -1.02 1.02 0 0 Z " fill="#9C52FF" transform="translate(13,2)"/>
<path d="M0 0 C0.33 0 0.66 0 1 0 C1.62440191 8.11722488 1.62440191 8.11722488 -0.8125 11.5625 C-3 13 -3 13 -6 13 C-6 12.34 -6 11.68 -6 11 C-2.53846154 8 -2.53846154 8 0 8 C0 5.36 0 2.72 0 0 Z " fill="#2F2C39" transform="translate(68,40)"/>
<path d="M0 0 C1.32 0 2.64 0 4 0 C4.66 1.32 5.32 2.64 6 4 C4.02 4.99 4.02 4.99 2 6 C2 5.01 2 4.02 2 3 C1.01 3 0.02 3 -1 3 C-0.67 2.01 -0.34 1.02 0 0 Z " fill="#8171E5" transform="translate(17,17)"/>
<path d="M0 0 C2.4375 0.6875 2.4375 0.6875 5 2 C5.8125 4.625 5.8125 4.625 6 7 C5.01 7.495 5.01 7.495 4 8 C3.67 7.01 3.34 6.02 3 5 C0.99983534 3.79117904 0.99983534 3.79117904 -1 3 C-0.67 2.01 -0.34 1.02 0 0 Z " fill="#9173F0" transform="translate(71,7)"/>
<path d="M0 0 C3.3 0 6.6 0 10 0 C5.56 2.96 5.56 2.96 3 4 C2.01 3.67 1.02 3.34 0 3 C0 2.01 0 1.02 0 0 Z " fill="#CDC7FF" transform="translate(0,0)"/>
<path d="M0 0 C0.66 0 1.32 0 2 0 C0.61811547 3.21043882 -0.92421903 5.04936365 -3.625 7.25 C-4.57246094 8.03117187 -4.57246094 8.03117187 -5.5390625 8.828125 C-6.02117188 9.21484375 -6.50328125 9.6015625 -7 10 C-5.15014033 6.06048404 -2.92434659 3.21678125 0 0 Z " fill="#D2D2D2" transform="translate(33,61)"/>
<path d="M0 0 C2.64 0 5.28 0 8 0 C8 0.66 8 1.32 8 2 C5.36 2.66 2.72 3.32 0 4 C0 2.68 0 1.36 0 0 Z " fill="#AA67FF" transform="translate(15,0)"/>
<path d="M0 0 C0.33 0.66 0.66 1.32 1 2 C1.99 1.67 2.98 1.34 4 1 C3.67 1.99 3.34 2.98 3 4 C1.02 4.33 -0.96 4.66 -3 5 C-3.66 4.01 -4.32 3.02 -5 2 C-3.35 1.34 -1.7 0.68 0 0 Z " fill="#7B5DFF" transform="translate(6,6)"/>
<path d="M0 0 C0.66 0 1.32 0 2 0 C2.66 1.65 3.32 3.3 4 5 C2.35 4.67 0.7 4.34 -1 4 C-1.33 4.66 -1.66 5.32 -2 6 C-1.125 1.125 -1.125 1.125 0 0 Z " fill="#9F9F9F" transform="translate(36,37)"/>
<path d="M0 0 C2.03144641 0.93446535 4.03533587 1.93224776 6 3 C4.68 3.99 3.36 4.98 2 6 C-1 4 -1 4 -2 3 C-2 2.34 -2 1.68 -2 1 C-1.34 0.67 -0.68 0.34 0 0 Z " fill="#826AE7" transform="translate(4,21)"/>
</svg>
